<?xml version="1.0" encoding="UTF-8"?>
<svg id="Layer_1" data-name="Layer 1" xmlns="http://www.w3.org/2000/svg" viewBox="0 0 808.4 265.27">
  <polygon points="40.47 63.72 63.22 63.72 63.22 216.06 79.16 216.06 79.16 63.72 101.91 63.72 101.91 48.75 40.47 48.75 40.47 63.72"/>
  <polygon points="166.84 120.12 137.51 120.12 137.51 48.75 121.33 48.75 121.33 216.06 137.51 216.06 137.51 137.74 166.84 137.74 166.84 216.06 183.02 216.06 183.02 48.75 166.84 48.75 166.84 120.12"/>
  <polygon points="223.99 137.5 251.05 137.5 251.05 121.31 223.99 121.31 223.99 63.72 258.47 63.72 258.47 48.75 207.8 48.75 207.8 216.06 259.91 216.06 259.91 199.88 223.99 199.88 223.99 137.5"/>
  <polygon points="325.06 48.75 308.88 48.75 308.88 216.06 358.1 216.06 358.1 199.4 325.06 199.4 325.06 48.75"/>
  <path d="M411.7,47.06h-4.55c-13.64,0-29.29,4.04-29.29,35.52v99.16c0,32.69,16.85,36.47,29.52,36.47h4.56c20.36,0,29.04-10.9,29.04-36.47v-99.4c0-24.73-8.76-35.27-29.29-35.27ZM424.33,183.66c0,15.79-7.91,19.09-14.55,19.09-5.7,0-15.26-2.48-15.26-19.09v-102.52c0-12.67,5.05-19.09,15.02-19.09,4.44,0,14.78,1.86,14.78,19.09v102.52Z"/>
  <path d="M497.17,47.06h-4.56c-13.64,0-29.29,4.04-29.29,35.52v99.16c0,32.69,16.86,36.47,29.53,36.47h4.55c20.36,0,29.06-10.9,29.06-36.47v-99.4c0-24.73-8.76-35.27-29.29-35.27ZM509.8,183.66c0,15.79-7.92,19.09-14.55,19.09-5.7,0-15.27-2.48-15.27-19.09v-102.52c0-12.67,5.06-19.09,15.02-19.09,4.45,0,14.79,1.86,14.79,19.09v102.52Z"/>
  <rect x="550.52" y="48.75" width="16.18" height="167.31"/>
  <polygon points="651.48 137.5 678.54 137.5 678.54 121.31 651.48 121.31 651.48 63.72 685.97 63.72 685.97 48.75 635.3 48.75 635.3 216.06 687.41 216.06 687.41 199.88 651.48 199.88 651.48 137.5"/>
  <path d="M767.08,207.13v-62.52c0-9.85-4.17-13.73-8.46-15.62l-6.81-2.8,5.88-2.32c2.5-.99,9.39-8.43,9.39-21.4v-31.61c0-16.32-5.66-22.1-21.62-22.1h-38.38v167.31h16.17v-79.52h12.4c7.66,0,15.5,1.97,15.5,16.7v53.65c0,4.67.37,7.46.79,9.17h16c-.5-2.29-.86-5.16-.86-8.93ZM735.87,122.04h-12.63v-59.99h12.63c15.27,0,15.27,11.87,15.27,16.94v24.9c0,6.78-1.99,18.14-15.27,18.14Z"/>
  <polygon points="613.79 48.75 612.45 48.75 611.08 48.75 609.23 48.75 597.51 48.75 573.46 129.23 598.73 216.06 615.17 216.06 589.91 129.41 613.79 48.75"/>
</svg>